<svg xmlns="http://www.w3.org/2000/svg" xmlns:xlink="http://www.w3.org/1999/xlink" width="500" zoomAndPan="magnify" viewBox="0 0 375 374.999991" height="500" preserveAspectRatio="xMidYMid meet" version="1.0"><defs><g/><clipPath id="110197d54e"><path d="M 97.410156 73.589844 L 277.769531 73.589844 L 277.769531 301 L 97.410156 301 Z M 97.410156 73.589844 " clip-rule="nonzero"/></clipPath></defs><g clip-path="url(#110197d54e)"><path fill="#171710" d="M 156.695312 295.386719 C 138.8125 292.933594 119.347656 288.65625 108.609375 274.933594 C 102.988281 267.726562 100.507812 258.726562 99.25 249.84375 C 97.21875 235.519531 98.027344 220.988281 98.804688 206.546875 C 100.804688 169.945312 102.808594 133.316406 107.175781 96.863281 C 108.101562 89.148438 110.046875 80.207031 117.460938 76.859375 C 120.390625 75.542969 123.769531 75.363281 127.03125 75.246094 C 151.371094 74.257812 175.710938 73.78125 200.082031 73.839844 C 214.914062 73.898438 230.195312 74.199219 243.859375 79.609375 C 274.835938 91.871094 273.820312 120.695312 274.539062 147.488281 C 275.4375 180.800781 276.363281 214.140625 277.261719 247.453125 C 277.679688 261.925781 277.769531 277.414062 269.304688 289.496094 C 266.34375 293.769531 262.21875 297.507812 257.136719 299.304688 C 252.980469 300.796875 248.402344 300.886719 243.949219 300.949219 C 214.792969 301.214844 185.578125 299.363281 156.695312 295.386719 Z M 156.695312 295.386719 " fill-opacity="1" fill-rule="nonzero"/></g><g fill="#f3f5f9" fill-opacity="1"><g transform="translate(138.350255, 172.092734)"><g><path d="M 2.851562 -8.363281 C 5.507812 8.460938 34.039062 -4.132812 41.121094 -11.511719 C 52.238281 -23.117188 58.4375 -44.074219 49.484375 -59.027344 C 45.058594 -66.601562 36.203125 -69.457031 27.941406 -69.945312 C 20.855469 -70.4375 9.246094 -69.945312 4.625 -63.652344 C -0.0976562 -57.058594 1.871094 -45.746094 2.164062 -38.171875 C 2.558594 -28.429688 1.378906 -18.003906 2.851562 -8.363281 Z M 22.824219 -22.429688 C 17.804688 -23.511719 19.972656 -34.628906 19.972656 -38.269531 C 20.070312 -44.171875 18.398438 -50.863281 26.167969 -48.894531 C 32.070312 -47.515625 36.695312 -42.597656 35.316406 -36.300781 C 34.433594 -32.269531 28.429688 -21.152344 22.824219 -22.429688 Z M 22.824219 -22.429688 "/></g></g></g><g fill="#f3f5f9" fill-opacity="1"><g transform="translate(213.897754, 172.092734)"><g><path d="M 1.769531 -62.078125 C 5.804688 -48.5 23.90625 -60.503906 20.757812 -70.4375 C 22.332031 -75.359375 13.675781 -77.226562 10.625 -76.339844 C 4.917969 -74.765625 0.0976562 -67.882812 1.769531 -62.078125 Z M 14.660156 -1.378906 C 17.609375 -3.542969 18.003906 -7.179688 18.691406 -10.527344 C 20.855469 -21.542969 23.316406 -36.992188 18.398438 -47.613281 C 16.132812 -52.4375 10.429688 -55.78125 6.199219 -51.355469 C 3.148438 -48.105469 3.148438 -41.023438 2.753906 -36.992188 C 2.066406 -28.234375 -0.0976562 -13.378906 3.738281 -5.117188 C 5.804688 -0.785156 10.328125 1.671875 14.660156 -1.378906 Z M 14.660156 -1.378906 "/></g></g></g><g fill="#f3f5f9" fill-opacity="1"><g transform="translate(143.01655, 253.540783)"><g><path d="M 12.296875 -0.0976562 C 19.972656 -1.082031 19.480469 -10.820312 19.480469 -16.625 C 19.480469 -21.054688 18.988281 -28.136719 22.824219 -31.480469 C 25.578125 -33.84375 30.792969 -34.726562 33.941406 -36.695312 C 40.53125 -40.730469 46.828125 -46.925781 45.84375 -55.289062 C 43.976562 -70.832031 25.773438 -73.785156 13.085938 -73.390625 C 1.769531 -72.996094 2.851562 -62.570312 2.359375 -53.320312 C 1.769531 -41.515625 2.066406 -29.710938 1.476562 -17.804688 C 1.179688 -11.019531 2.359375 1.179688 12.296875 -0.0976562 Z M 25.285156 -43.386719 C 19.871094 -41.710938 20.757812 -44.566406 20.953125 -48.796875 C 21.054688 -53.125 19.085938 -63.058594 25.773438 -59.714844 C 28.921875 -58.042969 30.792969 -54.007812 30.59375 -50.566406 C 30.496094 -47.023438 28.726562 -44.46875 25.285156 -43.386719 Z M 25.285156 -43.386719 "/></g></g></g><g fill="#f3f5f9" fill-opacity="1"><g transform="translate(209.219329, 253.540783)"><g><path d="M 1.769531 -62.078125 C 5.804688 -48.5 23.90625 -60.503906 20.757812 -70.4375 C 22.332031 -75.359375 13.675781 -77.226562 10.625 -76.339844 C 4.917969 -74.765625 0.0976562 -67.882812 1.769531 -62.078125 Z M 14.660156 -1.378906 C 17.609375 -3.542969 18.003906 -7.179688 18.691406 -10.527344 C 20.855469 -21.542969 23.316406 -36.992188 18.398438 -47.613281 C 16.132812 -52.4375 10.429688 -55.78125 6.199219 -51.355469 C 3.148438 -48.105469 3.148438 -41.023438 2.753906 -36.992188 C 2.066406 -28.234375 -0.0976562 -13.378906 3.738281 -5.117188 C 5.804688 -0.785156 10.328125 1.671875 14.660156 -1.378906 Z M 14.660156 -1.378906 "/></g></g></g></svg>